<?xml version="1.0" encoding="iso-8859-1"?>
<!-- Generator: Adobe Illustrator 16.0.0, SVG Export Plug-In . SVG Version: 6.00 Build 0)  -->
<!DOCTYPE svg PUBLIC "-//W3C//DTD SVG 1.1//EN" "http://www.w3.org/Graphics/SVG/1.1/DTD/svg11.dtd">
<svg version="1.1" id="Capa_1" xmlns="http://www.w3.org/2000/svg" xmlns:xlink="http://www.w3.org/1999/xlink" x="0px" y="0px"
	 width="981px" height="981px" viewBox="0 0 981 981" style="enable-background:new 0 0 981 981;" xml:space="preserve">
<g>
	<path d="M150,964.5c24.9,0,45-20.1,45-45v-858c0-24.9-20.1-45-45-45H45c-24.8,0-45,20.1-45,45v858c0,24.9,20.1,45,45,45H150z"/>
	<path d="M412,964.5c24.9,0,45-20.1,45-45v-858c0-24.9-20.1-45-45-45H307c-24.9,0-45,20.1-45,45v858c0,24.9,20.1,45,45,45H412z"/>
	<path d="M569,964.5h105c24.9,0,45-20.1,45-45v-858c0-24.9-20.1-45-45-45H569c-24.9,0-45,20.1-45,45v858
		C524,944.4,544.2,964.5,569,964.5z"/>
	<path d="M936,16.5H831c-24.9,0-45,20.1-45,45v858c0,24.9,20.1,45,45,45h105c24.9,0,45-20.1,45-45v-858
		C981,36.6,960.9,16.5,936,16.5z"/>
</g>
<g>
</g>
<g>
</g>
<g>
</g>
<g>
</g>
<g>
</g>
<g>
</g>
<g>
</g>
<g>
</g>
<g>
</g>
<g>
</g>
<g>
</g>
<g>
</g>
<g>
</g>
<g>
</g>
<g>
</g>
</svg>
