<svg width="14" height="14" viewBox="0 0 14 14" fill="none" xmlns="http://www.w3.org/2000/svg">
<g clip-path="url(#clip0_55_991)">
<path d="M10.6297 7.02391C10.3429 7.02391 10.1112 7.25624 10.1112 7.5424V11.6906C10.1112 11.9763 9.87884 12.2091 9.59268 12.2091H2.33339C2.04713 12.2091 1.8149 11.9763 1.8149 11.6906V4.43129C1.8149 4.1456 2.04713 3.9128 2.33339 3.9128H6.48157C6.7683 3.9128 7.00005 3.68047 7.00005 3.39431C7.00005 3.10806 6.7683 2.87573 6.48157 2.87573H2.33339C1.47576 2.87573 0.777832 3.57366 0.777832 4.43129V11.6906C0.777832 12.5482 1.47576 13.2461 2.33339 13.2461H9.59268C10.4503 13.2461 11.1482 12.5482 11.1482 11.6906V7.5424C11.1482 7.25567 10.9164 7.02391 10.6297 7.02391Z" fill="#8E8E8E"/>
<path d="M5.63991 6.55155C5.60364 6.58782 5.57924 6.63396 5.56889 6.68371L5.20231 8.51726C5.18522 8.60223 5.21219 8.68987 5.27333 8.75158C5.32261 8.80086 5.38897 8.82725 5.45695 8.82725C5.47347 8.82725 5.49066 8.82573 5.50775 8.82212L7.34073 8.45555C7.39152 8.4451 7.43766 8.4208 7.47346 8.38443L11.576 4.28192L9.74299 2.44904L5.63991 6.55155Z" fill="#8E8E8E"/>
<path d="M12.8426 1.1813C12.3371 0.67573 11.5147 0.67573 11.0096 1.1813L10.292 1.89889L12.125 3.73187L12.8426 3.01419C13.0873 2.77 13.2221 2.44434 13.2221 2.09799C13.2221 1.75163 13.0873 1.42597 12.8426 1.1813Z" fill="#8E8E8E"/>
</g>
<defs>
<clipPath id="clip0_55_991">
<rect width="12.4444" height="12.4444" fill="white" transform="translate(0.777832 0.777771)"/>
</clipPath>
</defs>
</svg>
