<svg width="16" height="16" viewBox="0 0 16 16" fill="none" xmlns="http://www.w3.org/2000/svg">
<path d="M9.77778 12.4444H3.55556V10.6667H9.77778V12.4444ZM12.4444 8.88889H3.55556V7.11111H12.4444V8.88889ZM12.4444 5.33333H3.55556V3.55556H8H12.4444V5.33333ZM14.2222 0H1.77778C0.791111 0 0 0.791111 0 1.77778V14.2222C0 14.6937 0.187301 15.1459 0.520699 15.4793C0.854097 15.8127 1.30628 16 1.77778 16H14.2222C14.6937 16 15.1459 15.8127 15.4793 15.4793C15.8127 15.1459 16 14.6937 16 14.2222V1.77778C16 0.791111 15.2 0 14.2222 0Z" fill="#0093FE"/>
</svg>
